<?xml version="1.0" encoding="iso-8859-1"?>
<!-- Uploaded to: SVG Repo, www.svgrepo.com, Generator: SVG Repo Mixer Tools -->
<!DOCTYPE svg PUBLIC "-//W3C//DTD SVG 1.1//EN" "http://www.w3.org/Graphics/SVG/1.1/DTD/svg11.dtd">
<svg height="800px" width="800px" version="1.1" id="Capa_1" xmlns="http://www.w3.org/2000/svg" xmlns:xlink="http://www.w3.org/1999/xlink" 
	 viewBox="0 0 460 460" xml:space="preserve">
<g id="XMLID_1507_">
	<circle id="XMLID_2979_" style="fill:#86C867;" cx="58.132" cy="58.132" r="30.33"/>
	<circle id="XMLID_2975_" style="fill:#86C867;" cx="58.132" cy="411.978" r="30.33"/>
	<circle id="XMLID_2971_" style="fill:#86C867;" cx="401.868" cy="128.901" r="30.33"/>
	<circle id="XMLID_2967_" style="fill:#86C867;" cx="280.549" cy="422.088" r="30.33"/>
	<circle id="XMLID_2944_" style="fill:#86C867;" cx="270.44" cy="37.912" r="30.33"/>
	<g id="XMLID_814_">
		<path id="XMLID_2962_" style="fill:#6AAC4B;" d="M159.231,207.253H58.132c-4.188,0-7.582-3.394-7.582-7.582V88.462
			c0-4.188,3.395-7.582,7.582-7.582s7.582,3.394,7.582,7.582v103.626h93.516c4.188,0,7.582,3.394,7.582,7.582
			C166.813,203.858,163.418,207.253,159.231,207.253z"/>
	</g>
	<g id="XMLID_1648_">
		<path id="XMLID_1665_" style="fill:#6AAC4B;" d="M58.132,96.044c20.905,0,37.912-17.007,37.912-37.912S79.037,20.22,58.132,20.22
			S20.22,37.227,20.22,58.132S37.227,96.044,58.132,96.044z M58.132,35.385c12.543,0,22.747,10.205,22.747,22.747
			S70.675,80.879,58.132,80.879S35.385,70.674,35.385,58.132S45.589,35.385,58.132,35.385z"/>
		<path id="XMLID_1699_" style="fill:#6AAC4B;" d="M149.121,247.692c4.188,0,7.582-3.394,7.582-7.582V45.495h76.587
			c3.522,17.284,18.84,30.33,37.149,30.33c20.905,0,37.912-17.007,37.912-37.912S291.345,0,270.44,0
			c-18.309,0-33.627,13.046-37.149,30.33h-84.17c-4.188,0-7.582,3.394-7.582,7.582V240.11
			C141.538,244.298,144.933,247.692,149.121,247.692z M270.44,15.165c12.543,0,22.747,10.205,22.747,22.747
			s-10.204,22.747-22.747,22.747c-12.543,0-22.747-10.205-22.747-22.747S257.896,15.165,270.44,15.165z"/>
		<path id="XMLID_1702_" style="fill:#6AAC4B;" d="M189.56,343.736c-4.188,0-7.582,3.394-7.582,7.582v53.077H95.281
			c-3.522-17.284-18.84-30.33-37.149-30.33c-20.905,0-37.912,17.007-37.912,37.912s17.007,37.912,37.912,37.912
			c18.309,0,33.627-13.046,37.149-30.33h94.279c4.188,0,7.582-3.394,7.582-7.582v-60.659
			C197.143,347.131,193.748,343.736,189.56,343.736z M58.132,434.725c-12.543,0-22.747-10.205-22.747-22.747
			c0-12.543,10.204-22.747,22.747-22.747s22.747,10.205,22.747,22.747C80.879,424.521,70.675,434.725,58.132,434.725z"/>
		<path id="XMLID_1705_" style="fill:#6AAC4B;" d="M381.648,283.077h-60.659c-4.188,0-7.582,3.394-7.582,7.582
			c0,4.188,3.395,7.582,7.582,7.582h53.077v116.264h-56.367c-3.522-17.284-18.84-30.33-37.149-30.33
			c-20.905,0-37.912,17.007-37.912,37.912S259.645,460,280.549,460c18.309,0,33.627-13.046,37.149-30.33h63.95
			c4.188,0,7.582-3.394,7.582-7.582V290.659C389.231,286.471,385.836,283.077,381.648,283.077z M280.549,444.835
			c-12.543,0-22.747-10.205-22.747-22.747c0-12.543,10.204-22.747,22.747-22.747c12.543,0,22.747,10.205,22.747,22.747
			C303.297,434.63,293.093,444.835,280.549,444.835z"/>
		<path id="XMLID_1708_" style="fill:#6AAC4B;" d="M310.879,192.088c-4.188,0-7.582,3.394-7.582,7.582
			c0,4.188,3.395,7.582,7.582,7.582h90.989c4.188,0,7.582-3.394,7.582-7.582v-33.62c17.284-3.522,30.33-18.84,30.33-37.149
			c0-20.905-17.007-37.912-37.912-37.912s-37.912,17.007-37.912,37.912c0,18.309,13.046,33.627,30.33,37.149v26.038H310.879z
			 M379.121,128.901c0-12.543,10.204-22.747,22.747-22.747c12.543,0,22.747,10.205,22.747,22.747s-10.204,22.747-22.747,22.747
			C389.325,151.648,379.121,141.444,379.121,128.901z"/>
		<path id="XMLID_1709_" style="fill:#6AAC4B;" d="M40.44,290.659c0,4.188,3.395,7.582,7.582,7.582h90.989
			c4.188,0,7.582-3.394,7.582-7.582c0-4.188-3.395-7.582-7.582-7.582H48.022C43.834,283.077,40.44,286.471,40.44,290.659z"/>
		<path id="XMLID_1710_" style="fill:#6AAC4B;" d="M432.198,252.747H331.099c-4.188,0-7.582,3.394-7.582,7.582
			c0,4.188,3.395,7.582,7.582,7.582h101.099c4.188,0,7.582-3.394,7.582-7.582C439.78,256.142,436.385,252.747,432.198,252.747z"/>
	</g>
	<g id="XMLID_525_">
		<path id="XMLID_2018_" style="fill:#F9B65F;" d="M275.688,230.543v-37.234c0-25.233-20.455-45.688-45.688-45.688
			s-45.688,20.455-45.688,45.688v37.234h-35.845v-40.329c0-45.029,36.503-81.532,81.532-81.532s81.532,36.503,81.532,81.532v40.329
			H275.688z"/>
	</g>
	<g id="XMLID_524_">
		<path id="XMLID_2586_" style="fill:#DE3E30;" d="M314.209,363.169H145.791c-16.534,0-29.937-13.403-29.937-29.937V230.543h228.29
			v102.689C344.145,349.766,330.742,363.169,314.209,363.169z"/>
	</g>
	<path id="XMLID_2022_" style="opacity:0.49;fill:#D0D5D9;" d="M320.989,230.543v80.4c0,16.715-13.55,30.266-30.266,30.266H122.964
		c-2.097,0-4.145-0.214-6.122-0.62c3.401,12.993,15.219,22.58,29.278,22.58H313.88c16.715,0,30.266-13.55,30.266-30.266v-102.36
		L320.989,230.543z"/>
	<g id="XMLID_523_">
		<path id="XMLID_2956_" style="fill:#FFFFFF;" d="M230,320.745c-4.188,0-7.582-3.394-7.582-7.582v-32.613
			c0-4.188,3.395-7.582,7.582-7.582s7.582,3.394,7.582,7.582v32.613C237.582,317.351,234.188,320.745,230,320.745z"/>
	</g>
</g>
</svg>